<svg width="42" height="33" viewBox="0 0 42 33" fill="none" xmlns="http://www.w3.org/2000/svg">
<path d="M33.4709 26.4772L33.1425 25.8029L33.4709 26.4772ZM34.4216 25.1035L33.6716 25.1035V25.1035H34.4216ZM18.9992 31.502L18.6509 32.1663L18.9992 31.502ZM23.0415 31.5568L23.3699 32.231L23.0415 31.5568ZM1.47202 10.3368L1.14118 9.66369L1.47202 10.3368ZM1.47203 11.7072L1.14118 12.3803H1.14118L1.47203 11.7072ZM21.9902 20.8191L22.321 21.4922L21.9902 20.8191ZM20.0098 20.8191L20.3406 20.146L20.0098 20.8191ZM40.528 10.3368L40.8588 9.66369L40.528 10.3368ZM40.528 11.7072L40.1971 11.0342L40.528 11.7072ZM9.42852 26.4842L9.77678 25.82L9.42852 26.4842ZM21.9902 1.2249L21.6594 1.89799L21.9902 1.2249ZM20.0098 1.2249L20.3406 1.89799L20.0098 1.2249ZM41.4793 10.9955C41.4793 10.5812 41.1435 10.2455 40.7293 10.2455C40.3151 10.2455 39.9793 10.5812 39.9793 10.9955H41.4793ZM39.9793 19.6104C39.9793 20.0246 40.3151 20.3604 40.7293 20.3604C41.1435 20.3604 41.4793 20.0246 41.4793 19.6104H39.9793ZM21.6594 1.89799L40.1971 11.0099L40.8588 9.66369L22.321 0.551817L21.6594 1.89799ZM40.1971 11.0342L21.6594 20.146L22.321 21.4922L40.8588 12.3803L40.1971 11.0342ZM1.80287 11.0099L20.3406 1.89799L19.679 0.551816L1.14118 9.66369L1.80287 11.0099ZM20.3406 20.146L8.86274 14.5043L8.20106 15.8505L19.679 21.4922L20.3406 20.146ZM8.86274 14.5043L1.80287 11.0342L1.14118 12.3803L8.20106 15.8505L8.86274 14.5043ZM7.7819 15.1774V25.1378H9.2819V15.1774H7.7819ZM9.08027 27.1485L18.6509 32.1663L19.3475 30.8378L9.77678 25.82L9.08027 27.1485ZM23.3699 32.231L33.7993 27.1515L33.1425 25.8029L22.7131 30.8825L23.3699 32.231ZM35.1716 25.1035L35.1716 15.1774L33.6716 15.1774L33.6716 25.1035L35.1716 25.1035ZM33.7993 27.1515C34.5952 26.7638 35.1716 26.0076 35.1716 25.1035H33.6716C33.6716 25.328 33.525 25.6166 33.1425 25.8029L33.7993 27.1515ZM18.6509 32.1663C20.0911 32.9213 21.9041 32.9449 23.3699 32.231L22.7131 30.8825C21.6734 31.3888 20.3628 31.3701 19.3475 30.8378L18.6509 32.1663ZM1.14118 9.66369C0.600042 9.92968 0.249999 10.4387 0.25 11.022C0.250001 11.6053 0.600044 12.1143 1.14118 12.3803L1.80287 11.0342C1.77828 11.0221 1.76315 11.011 1.75467 11.0037C1.74622 10.9964 1.74337 10.9921 1.74335 10.992C1.74332 10.992 1.74518 10.9949 1.74698 11.0008C1.74876 11.0066 1.75 11.0139 1.75 11.022C1.75 11.0301 1.74876 11.0374 1.74698 11.0432C1.74518 11.0491 1.74332 11.052 1.74335 11.052C1.74337 11.0519 1.74622 11.0476 1.75467 11.0403C1.76315 11.033 1.77828 11.0219 1.80287 11.0099L1.14118 9.66369ZM21.6594 20.146C21.2579 20.3433 20.7421 20.3433 20.3406 20.146L19.679 21.4922C20.4977 21.8946 21.5023 21.8946 22.321 21.4922L21.6594 20.146ZM40.1971 11.0099C40.2217 11.0219 40.2368 11.033 40.2453 11.0403C40.2538 11.0476 40.2566 11.052 40.2567 11.052C40.2567 11.052 40.2548 11.0491 40.253 11.0432C40.2512 11.0374 40.25 11.0301 40.25 11.022C40.25 11.0139 40.2512 11.0066 40.253 11.0008C40.2548 10.9949 40.2567 10.992 40.2567 10.992C40.2566 10.9921 40.2538 10.9964 40.2453 11.0037C40.2368 11.011 40.2217 11.0221 40.1971 11.0342L40.8588 12.3803C41.4 12.1143 41.75 11.6053 41.75 11.022C41.75 10.4387 41.4 9.92968 40.8588 9.66369L40.1971 11.0099ZM7.7819 25.1378C7.7819 26.0115 8.32155 26.7507 9.08027 27.1485L9.77678 25.82C9.41869 25.6322 9.2819 25.3557 9.2819 25.1378H7.7819ZM22.321 0.551817C21.5023 0.149395 20.4977 0.149394 19.679 0.551816L20.3406 1.89799C20.7421 1.70067 21.2579 1.70067 21.6594 1.89799L22.321 0.551817ZM39.9793 10.9955V19.6104H41.4793V10.9955H39.9793Z" fill="#6E00FA"/>
</svg>
